<svg t="1573520176931" class="icon" viewBox="0 0 1758 1024" version="1.1" xmlns="http://www.w3.org/2000/svg" p-id="9575" width="128" height="128"><path d="M729.368953 650.628159a148.424549 35.858484 0 1 0 296.849098 0 148.424549 35.858484 0 1 0-296.849098 0Z" fill="" p-id="9576"></path><path d="M852.285921 591.295307l-4.436102 18.298917c-4.990614-7.763177-11.27509-15.341516-18.668592-19.223105l20.886643-120.883754 28.280144 6.284476L870.584838 515.696751l-18.298917 75.598556zM936.202166 599.058484c-2.218051 0.73935-4.436101 1.293863-6.654152 1.848375-4.990614 1.109025-9.79639 2.033213-14.787003 2.772563l-6.654152-153.969675 29.204332 26.246932-0.554512 122.547292c-1.109025 0.554513-1.663538 0.924188-0.554513 0.554513z" fill="#3D3D3D" p-id="9577"></path><path d="M874.651264 268.568953s-19.962455 6.284477-28.64982 32.161733l26.616607 14.047653 2.033213-46.209386z" fill="#FFCD0C" p-id="9578"></path><path d="M866.148736 570.038989l-42.88231-6.099639-4.620939 51.384838-37.337184 15.526354 61.366065 11.459927zM902.00722 568.560289l43.067148 2.772563-5.914801 51.2 33.455595 22.919856-62.290252-1.293863z" fill="#895035" p-id="9579"></path><path d="M884.632491 25.692419s-126.428881-2.587726-112.750903 203.875812c0 0 70.238267 51.015162 195.188448 16.265704 0.184838 0-153.230325-104.987726-82.437545-220.141516z" fill="#42347B" p-id="9580"></path><path d="M780.568953 188.349458c0.369675-4.251264 0.924188-8.687365 1.4787-12.938628 1.109025-7.948014 2.402888-15.711191 4.066426-23.659205 0.554513-1.848375 2.772563-9.79639 3.327076-11.644766 0.924188-2.772563 1.848375-5.545126 2.957401-8.132852 24.768231-9.05704 49.7213-17.744404 74.859206-26.062094 11.459928 79.480144 99.997112 140.106859 99.997112 140.10686-100.551625 27.910469-165.61444 0.554513-187.240434-11.275091-0.184838-3.696751-0.369675-7.393502-0.369675-11.090252-0.184838-7.578339-0.184838-15.156679 0-22.735018 0.184838-2.957401 0.73935-10.350903 0.924188-12.568954z" fill="#40327A" p-id="9581"></path><path d="M763.933574 312.375451s-23.104693-11.644765 8.31769-3.881588c0 0 4.066426 0.369675 10.53574 9.05704 0 0 18.114079 21.81083 43.62166 18.298916 15.711191-2.218051 24.583394-36.043321 25.322744-39.185559 7.763177-0.184838 14.417329-2.033213 19.962455-5.360289-0.369675 4.990614-1.109025 9.981227-1.848376 14.602166-3.696751 12.568953-14.417329 41.033935-36.228158 51.2 0 0-14.232491 12.384116-63.214441-30.12852 0 0-13.677978 7.948014-12.199278 4.436101 3.696751-8.687365 7.023827-10.905415 7.023827-10.905415s-28.464982 5.360289-1.293863-8.132852z" fill="#FFCCB8" p-id="9582"></path><path d="M870.954513 269.677978s-6.838989-6.284477-17.189892 73.380506c0 0-41.033935 38.446209-68.020217 100.736462 0 0 17.744404 51.015162 112.19639 51.015162 86.873646 0 101.290975-41.588448 101.290975-41.588447s-28.649819-65.432491-53.602888-101.475813c0 0 4.436101-80.774007-19.777617-86.873646-24.398556-6.099639-54.896751 4.805776-54.896751 4.805776z" fill="#FFCD0C" p-id="9583"></path><path d="M886.111191 243.615884l0.184838 21.810831-9.241877 2.21805s-1.848375 14.971841 13.677978 17.744405 28.649819-4.066426 30.12852-22.550181h-14.602166v-19.407942h-20.147293z" fill="#FA9D8B" p-id="9584"></path><path d="M930.841877 31.976895s-86.319134-34.749458-124.025993 46.209387c-37.706859 80.958845-23.844043 157.481588 33.085921 170.050541 56.929964 12.568953 195.373285 14.971841 165.984116-120.329242 0-0.184838-17.189892-89.831047-75.044044-95.930686z" fill="#FFCCB8" p-id="9585"></path><path d="M833.617329 244.170397c21.441155-0.369675 41.218773-2.033213 59.887364-14.047653 19.962455-12.938628 33.270758-31.976895 42.327798-53.602888 12.568953-29.758845 1.663538-71.901805-21.07148-93.897473-8.872202-8.687365-18.668592-12.568953-27.910469-12.384116 0.184838-15.526354-3.881588-31.792058-9.981228-45.100361 28.834657-3.327076 53.787726 6.838989 53.787726 6.838989 57.854152 6.284477 75.228881 95.745848 75.228881 95.745849 29.38917 135.301083-109.054152 132.898195-165.984116 120.329242-4.620939-0.924188-8.687365-2.402888-12.753791-4.251264 2.218051 0.184838 4.251264 0.369675 6.469315 0.369675z" fill="#FDAE9B" p-id="9586"></path><path d="M829.73574 194.449097H877.978339s3.511913 30.12852-24.213718 30.12852-24.028881-30.12852-24.028881-30.12852z" fill="#300707" p-id="9587"></path><path d="M837.314079 218.847653c3.696751 3.327076 8.872202 5.729964 16.635379 5.729964 17.744404 0 22.550181-12.199278 23.844044-21.07148-15.526354-1.109025-29.38917 2.957401-40.479423 15.341516z" fill="#CB5151" p-id="9588"></path><path d="M954.131408 283.171119s23.104693 44.361011 8.132852 75.783394c0 0-3.327076 20.516968-75.228881 18.853429 0 0-6.099639 16.450542-7.208664 12.199278-2.957401-9.981227-1.663538-14.417329-1.663538-14.417328s-20.516968 24.953069-6.838989-5.729964c0 0-27.910469 6.469314 4.436101-9.241877 0 0 3.696751-2.587726 15.341516 0.369675 0 0 30.86787 5.729964 50.090975-15.156679 12.384116-13.493141-6.099639-51.569675-6.099639-51.569675s-14.971841-25.692419-9.05704-29.38917c12.568953-7.578339 23.104693 11.459928 31.237545 24.583394" fill="#FFCCB8" p-id="9589"></path><path d="M792.953069 115.338628c6.654152-36.967509 24.953069-95.561011 113.305415-90.940072 11.27509 0.554513 21.256318 2.772563 30.313357 6.099639 35.673646 9.981227 99.997112 48.427437 90.015885 194.449097 0 0-14.417329 18.668592-72.271481 28.464982 0 0 12.199278-46.209386 3.142239-108.684476-46.948736 1.109025-76.153069-16.820217-93.897473-36.228159 0.184838 0.369675 0.554513 0.73935 0.73935 1.109025l4.805776 5.545127 2.402888 2.772563 2.772563 2.402888c1.848375 1.663538 3.696751 3.142238 5.545127 4.805776 3.881588 2.957401 7.948014 5.545126 11.644765 8.132852 4.251264 2.218051 8.132852 4.251264 12.014441 6.099639 1.848375 1.109025 3.881588 1.663538 5.914801 2.402888 1.848375 0.73935 3.696751 1.4787 5.545126 2.033213 3.511913 1.293863 6.838989 2.772563 9.981228 3.327076 2.957401 0.73935 5.729964 1.663538 7.948014 2.21805 4.436101 1.293863 7.023827 2.218051 7.023827 2.218051h-7.208664c-2.218051 0-5.175451 0-8.31769-0.184838-1.663538-0.184838-3.327076 0-5.175451-0.369675l-5.545126-1.109025c-3.881588-0.924188-8.31769-1.293863-12.753791-2.957401-4.251264-1.663538-9.05704-3.327076-13.677978-5.360288-4.436101-2.587726-9.241877-4.990614-13.493141-8.31769-2.033213-1.663538-4.251264-3.511913-6.284477-5.360289l-3.142238-2.587725-2.772563-3.142239-5.360289-6.284476c-1.663538-2.218051-2.957401-4.620939-4.436101-6.838989-3.142238-4.436101-4.805776-9.611552-7.208664-14.047654-1.663538-4.805776-3.327076-9.426715-4.251264-14.047653-0.369675-2.218051-0.924188-4.436101-1.293863-6.654152-0.184838-2.218051-0.369675-4.251264-0.73935-6.284476-0.184838-1.663538-0.369675-3.511913-0.369675-4.990614-11.27509 39.555235-44.915523 52.309025-44.915523 52.309025z" fill="#40327A" p-id="9590"></path><path d="M957.088809 144.912635c-5.360289 0.184838-10.350903 0-15.156679-0.369675 0-1.4787-0.554513-3.142238 0.184838-4.436101 12.01444-21.81083 10.350903-41.958123 0.369675-68.574729-4.805776-12.753791-22.735018-36.782671-31.976896-46.579061 9.426715 0.924188 18.114079 2.772563 25.877257 5.729963 35.673646 9.981227 99.997112 48.427437 90.015884 194.449098 0 0-14.417329 18.668592-72.27148 28.464982-0.184838 0 12.199278-46.209386 2.957401-108.684477z" fill="#42347B" p-id="9591"></path><path d="M920.86065 263.023827s32.161733-10.166065 43.251985 36.597834l-27.725631 10.53574-15.526354-47.133574z" fill="#FFCD0C" p-id="9592"></path><path d="M995.904693 82.992058l-27.171119 16.635379-36.228159-12.938628 9.981228 41.773285 26.246931-22.735018 33.270758 8.872202z" fill="#FF809F" p-id="9593"></path><path d="M916.054874 175.780505s0.73935-0.924188 1.663538-2.772563 2.033213-4.620939 2.402888-7.948014c0.184838-1.663538 0.369675-3.696751 0-5.545127-0.369675-2.033213-1.109025-4.251264-2.772564-6.284476s-4.251264-3.881588-7.393501-4.805776c-3.142238-0.924188-6.099639-1.293863-9.79639-1.293863-1.4787 0.184838-2.587726 0-4.436101 0.554513-1.848375 0.369675-3.696751 0.73935-5.175452 1.4787l-2.21805 0.924188-1.848376 1.293862c-1.293863 0.924188-2.218051 2.033213-3.142238 2.957401-1.663538 2.033213-2.772563 4.251264-3.327076 6.099639-0.554513 2.033213-0.924188 3.881588-0.924187 5.545127-0.184838 3.327076 0.369675 6.099639 0.73935 8.132852 0.554513 1.848375 0.924188 2.957401 0.924188 2.9574s0.184838-1.109025 0.554512-2.9574c0.369675-1.848375 0.924188-4.620939 2.033213-7.57834 0.554513-1.4787 1.293863-3.142238 2.033213-4.805776 0.924188-1.663538 2.033213-3.142238 3.327076-4.620939 1.4787-1.293863 3.142238-2.587726 5.175451-3.142238 0.924188-0.554513 1.848375-0.554513 2.957401-0.73935 0.73935-0.369675 2.587726-0.184838 3.881588-0.369675 2.033213 0 4.620939 0.184838 6.654152 0.73935 1.109025 0.184838 1.848375 0.73935 2.772563 1.109025 0.73935 0.554513 1.663538 0.924188 2.218051 1.663538 1.293863 1.293863 2.218051 2.772563 2.772563 4.251264 0.554513 1.663538 0.924188 3.142238 1.293863 4.805776 0.369675 3.142238 0.369675 5.729964 0.369675 7.763177-0.73935 1.4787-0.73935 2.587726-0.73935 2.587725zM831.029603 173.93213s0.73935-0.924188 1.663538-2.772563 2.033213-4.620939 2.402888-7.948015c0.184838-1.663538 0.369675-3.696751 0-5.545126-0.369675-2.033213-1.109025-4.251264-2.772563-6.284477s-4.251264-3.881588-7.393502-4.805776c-3.142238-0.924188-6.099639-1.293863-9.79639-1.293863-1.4787 0.184838-2.587726 0-4.436101 0.554513-1.848375 0.369675-3.696751 0.73935-5.175451 1.4787l-2.218051 0.924188-1.848375 1.293863c-1.293863 0.924188-2.218051 2.033213-3.142239 2.957401-1.663538 2.033213-2.772563 4.251264-3.327075 6.099639-0.554513 2.033213-0.924188 3.881588-0.924188 5.545126-0.184838 3.327076 0.369675 6.099639 0.73935 8.132852 0.554513 1.848375 0.924188 2.957401 0.924188 2.957401s0.184838-1.109025 0.554512-2.957401c0.369675-1.848375 0.924188-4.620939 2.033213-7.578339 0.554513-1.4787 1.293863-3.142238 2.033213-4.805776 0.924188-1.663538 2.033213-3.142238 3.327076-4.620939 1.4787-1.293863 3.142238-2.587726 5.175451-3.142238 0.924188-0.554513 1.848375-0.554513 2.957401-0.739351 0.73935-0.369675 2.587726-0.184838 3.881589-0.369675 2.033213 0 4.620939 0.184838 6.654151 0.739351 1.109025 0.184838 1.848375 0.73935 2.772563 1.109025 0.73935 0.554513 1.663538 0.924188 2.218051 1.663538 1.293863 1.293863 2.218051 2.772563 2.772563 4.251263 0.554513 1.663538 0.924188 3.142238 1.293863 4.805776 0.369675 3.142238 0.369675 5.729964 0.369675 7.763177-0.554513 1.4787-0.73935 2.587726-0.73935 2.587726z" fill="#1B1B1B" p-id="9594"></path><path d="M998.492419 164.87509c-0.369675-10.350903-2.587726-20.701805-6.099639-30.683032 1.4787-0.73935 2.957401-1.4787 4.620938-1.848376 10.53574-2.587726 21.07148 4.436101 23.659206 15.341517 2.587726 10.905415-3.696751 21.995668-14.232491 24.398556-2.772563 0.73935-5.545126 0.73935-8.132852 0.184837 0.184838-2.402888 0.184838-4.805776 0.184838-7.393502z" fill="#FFCCB8" p-id="9595"></path><path d="M312.375451 954.501083H3.696751c-2.033213 0-3.696751-1.663538-3.696751-3.696751s1.663538-3.696751 3.696751-3.696751h308.6787c2.033213 0 3.696751 1.663538 3.696751 3.696751s-1.663538 3.696751-3.696751 3.696751z" fill="#82CCF4" p-id="9596"></path><path d="M1325.654874 945.259206H311.451264v8.872202h1014.20361v-4.436101-4.436101z" fill="#82CCF4" p-id="9597"></path><path d="M1754.477978 954.685921H1326.209386c-2.033213 0-3.881588-1.663538-3.881588-3.881589 0-2.033213 1.663538-3.881588 3.881588-3.881588h428.083755c2.033213 0 3.881588 1.663538 3.881588 3.881588 0 2.218051-1.663538 3.881588-3.696751 3.881589zM361.911913 989.805054h-131.234657c-2.033213 0-3.881588-1.663538-3.881588-3.881588v-0.184838c0-2.033213 1.663538-3.881588 3.881588-3.881588h131.234657c2.033213 0 3.881588 1.663538 3.881589 3.881588v0.184838c-0.184838 2.218051-1.848375 3.881588-3.881589 3.881588zM594.992058 1020.857762H320.138628c-2.033213 0-3.881588-1.663538-3.881588-3.881589v-0.184837c0-2.033213 1.663538-3.881588 3.881588-3.881589h274.668592c2.033213 0 3.881588 1.663538 3.881589 3.881589v0.184837c0 2.218051-1.663538 3.881588-3.696751 3.881589zM933.799278 989.250542H492.961733c-2.033213 0-3.696751-1.663538-3.696751-3.696751v-0.369675c0-2.033213 1.663538-3.696751 3.696751-3.696751h440.837545c2.033213 0 3.696751 1.663538 3.696751 3.696751v0.554512c0 1.848375-1.663538 3.511913-3.696751 3.511914zM1086.659928 1024H720.311913c-2.218051 0-4.251264-1.848375-4.251263-4.251264 0-2.218051 1.848375-4.251264 4.251263-4.251263h366.348015c2.218051 0 4.251264 1.848375 4.251263 4.251263 0 2.402888-1.848375 4.251264-4.251263 4.251264zM1281.4787 988.880866H1009.397834c-1.848375 0-3.511913-1.4787-3.511913-3.511913v-0.924188c0-1.848375 1.4787-3.511913 3.511913-3.511913h272.080866c1.848375 0 3.511913 1.4787 3.511914 3.511913v0.924188c0 1.848375-1.663538 3.511913-3.511914 3.511913z" fill="#82CCF4" p-id="9598"></path><path d="M610.148736 136.410108c-1.293863 0-2.218051-0.924188-2.21805-2.21805v-12.014441c0-1.293863 0.924188-2.218051 2.21805-2.21805s2.218051 0.924188 2.218051 2.21805v12.014441c0 1.293863-0.924188 2.218051-2.218051 2.21805zM600.722022 138.443321c-0.924188 0.73935-2.402888 0.73935-3.142239-0.184837l-7.763177-9.241878c-0.73935-0.924188-0.73935-2.402888 0.184838-3.142238 0.924188-0.73935 2.402888-0.73935 3.142238 0.184838l7.763177 9.241877c0.924188 0.924188 0.73935 2.402888-0.184837 3.142238zM621.238989 138.628159c-0.924188-0.73935-1.109025-2.033213-0.369675-3.142238l7.208664-9.611553c0.73935-0.924188 2.033213-1.109025 3.142239-0.369675 0.924188 0.73935 1.109025 2.033213 0.369675 3.142238l-7.208665 9.611553c-0.73935 0.924188-2.218051 1.109025-3.142238 0.369675zM631.035379 146.391336c-0.369675-1.109025 0.184838-2.402888 1.293863-2.772563l11.459928-4.066426c1.109025-0.369675 2.402888 0.184838 2.772563 1.293862 0.369675 1.109025-0.184838 2.402888-1.293863 2.772564l-11.459928 4.066426c-1.109025 0.369675-2.402888-0.184838-2.772563-1.293863zM575.399278 141.031047c-0.369675 1.109025 0.184838 2.402888 1.293863 2.772563l11.459928 4.066426c1.109025 0.369675 2.402888-0.184838 2.772563-1.293863 0.369675-1.109025-0.184838-2.402888-1.293863-2.772563l-11.459928-4.066426c-1.109025-0.554513-2.402888 0-2.772563 1.293863zM611.072924 180.586282c-1.293863 0-2.218051 0.924188-2.21805 2.21805v12.014441c0 1.293863 0.924188 2.218051 2.21805 2.21805s2.218051-0.924188 2.218051-2.21805v-12.014441c0-1.293863-0.924188-2.218051-2.218051-2.21805zM601.831047 178.553069c-0.924188-0.73935-2.402888-0.73935-3.142238 0.184837l-7.763177 9.241877c-0.73935 0.924188-0.73935 2.402888 0.184837 3.142239 0.924188 0.73935 2.402888 0.73935 3.142239-0.184838l7.763176-9.241877c0.73935-0.924188 0.73935-2.402888-0.184837-3.142238zM622.163177 178.368231c-0.924188 0.73935-1.109025 2.033213-0.369675 3.142238l7.208664 9.611553c0.73935 0.924188 2.033213 1.109025 3.142238 0.369675 0.924188-0.73935 1.109025-2.033213 0.369675-3.142239l-7.208664-9.611552c-0.73935-0.924188-2.033213-1.109025-3.142238-0.369675zM631.959567 170.605054c-0.369675 1.109025 0.184838 2.402888 1.293863 2.772563l11.459927 4.066426c1.109025 0.369675 2.402888-0.184838 2.772564-1.293862 0.369675-1.109025-0.184838-2.402888-1.293863-2.772564l-11.459928-4.066426c-1.109025-0.554513-2.402888 0.184838-2.772563 1.293863zM576.323466 175.965343c-0.369675-1.109025 0.184838-2.402888 1.293863-2.772563l11.459927-4.066426c1.109025-0.369675 2.402888 0.184838 2.772563 1.293863 0.369675 1.109025-0.184838 2.402888-1.293862 2.772563l-11.459928 4.066426c-1.109025 0.554513-2.218051 0-2.772563-1.293863zM570.963177 159.884477c0 1.293863 0.924188 2.218051 2.21805 2.21805h12.014441c1.293863 0 2.218051-0.924188 2.21805-2.21805s-0.924188-2.218051-2.21805-2.218051h-12.014441c-1.293863 0-2.218051 1.109025-2.21805 2.218051zM633.068592 159.884477c0 1.293863 0.924188 2.218051 2.218051 2.21805h12.01444c1.293863 0 2.218051-0.924188 2.218051-2.21805s-0.924188-2.218051-2.218051-2.218051h-12.01444c-1.293863 0-2.218051 1.109025-2.218051 2.218051z" fill="#45B2EF" p-id="9599"></path><path d="M1242.293141 12.568953c-0.924188 0-1.663538-0.73935-1.663538-1.663538v-9.241877c0-0.924188 0.73935-1.663538 1.663538-1.663538s1.663538 0.73935 1.663538 1.663538v9.241877c0 0.924188-0.73935 1.663538-1.663538 1.663538zM1235.269314 14.047653c-0.73935 0.554513-1.848375 0.554513-2.402888-0.184837l-5.914801-7.023827c-0.554513-0.73935-0.554513-1.848375 0.184837-2.402888 0.73935-0.554513 1.848375-0.554513 2.402888 0.184838l5.914802 7.023826c0.554513 0.73935 0.554513 1.848375-0.184838 2.402888zM1250.795668 14.232491c-0.73935-0.554513-0.924188-1.663538-0.369675-2.402888l5.545126-7.393502c0.554513-0.73935 1.663538-0.924188 2.402888-0.369675s0.924188 1.663538 0.369675 2.402888l-5.545126 7.393502c-0.73935 0.73935-1.663538 0.924188-2.402888 0.369675zM1258.18917 20.147292c-0.369675-0.924188 0.184838-1.848375 1.109025-2.21805l8.687365-2.957401c0.924188-0.369675 1.848375 0.184838 2.21805 1.109025 0.369675 0.924188-0.184838 1.848375-1.109025 2.218051l-8.687365 2.957401c-1.109025 0.184838-2.033213-0.369675-2.21805-1.109026zM1216.046209 15.896029c-0.369675 0.924188 0.184838 1.848375 1.109026 2.21805l8.687364 2.957401c0.924188 0.369675 1.848375-0.184838 2.218051-1.109025 0.369675-0.924188-0.184838-1.848375-1.109025-2.218051L1218.079422 14.971841c-0.73935-0.369675-1.848375 0.184838-2.033213 0.924188zM1243.032491 46.024549c-0.924188 0-1.663538 0.73935-1.663538 1.663538v9.241877c0 0.924188 0.73935 1.663538 1.663538 1.663538s1.663538-0.73935 1.663538-1.663538v-9.241877c0-0.924188-0.73935-1.663538-1.663538-1.663538zM1236.008664 44.545848c-0.73935-0.554513-1.848375-0.554513-2.402888 0.184838l-5.914801 7.023827c-0.554513 0.73935-0.554513 1.848375 0.184837 2.402888 0.73935 0.554513 1.848375 0.554513 2.402888-0.184838l5.914802-7.023827c0.554513-0.924188 0.369675-1.848375-0.184838-2.402888zM1251.535018 44.361011c-0.73935 0.554513-0.924188 1.663538-0.369675 2.402888l5.545126 7.393502c0.554513 0.73935 1.663538 0.924188 2.402888 0.369675s0.924188-1.663538 0.369675-2.402888l-5.545126-7.393502c-0.73935-0.73935-1.663538-0.924188-2.402888-0.369675zM1258.92852 38.446209c-0.369675 0.924188 0.184838 1.848375 1.109025 2.218051l8.687365 2.957401c0.924188 0.369675 1.848375-0.184838 2.21805-1.109026 0.369675-0.924188-0.184838-1.848375-1.109025-2.21805l-8.687365-2.957401c-1.109025-0.184838-2.033213 0.184838-2.21805 1.109025zM1216.78556 42.512635c-0.369675-0.924188 0.184838-1.848375 1.109025-2.21805l8.687364-2.957401c0.924188-0.369675 1.848375 0.184838 2.218051 1.109025 0.369675 0.924188-0.184838 1.848375-1.109025 2.218051l-8.687365 2.957401c-1.109025 0.369675-2.033213-0.184838-2.21805-1.109026zM1212.534296 30.313357c0 0.924188 0.73935 1.663538 1.663538 1.663538h9.241877c0.924188 0 1.663538-0.73935 1.663538-1.663538s-0.73935-1.663538-1.663538-1.663538h-9.241877c-0.924188 0-1.663538 0.73935-1.663538 1.663538zM1259.66787 30.313357c0 0.924188 0.73935 1.663538 1.663538 1.663538h9.241877c0.924188 0 1.663538-0.73935 1.663538-1.663538s-0.73935-1.663538-1.663538-1.663538h-9.241877c-0.924188 0-1.663538 0.73935-1.663538 1.663538z" fill="#45B2EF" p-id="9600"></path><path d="M1669.26787 626.784116c-1.109025 0-2.033213-0.924188-2.033213-2.033213v-11.090253c0-1.109025 0.924188-2.033213 2.033213-2.033213 1.109025 0 2.033213 0.924188 2.033213 2.033213v11.090253c0 1.109025-0.924188 2.033213-2.033213 2.033213zM1660.765343 628.632491c-0.924188 0.73935-2.033213 0.554513-2.772563-0.184838l-7.208664-8.502527c-0.73935-0.924188-0.554513-2.033213 0.184837-2.772563 0.924188-0.73935 2.033213-0.554513 2.772563 0.184838l7.208665 8.502527c0.73935 0.73935 0.554513 2.033213-0.184838 2.772563zM1679.433935 628.632491c-0.924188-0.73935-1.109025-1.848375-0.369675-2.772563l6.654152-8.872202c0.73935-0.924188 1.848375-1.109025 2.772563-0.369675 0.924188 0.73935 1.109025 1.848375 0.369675 2.772563l-6.654152 8.872202c-0.554513 0.924188-1.848375 1.109025-2.772563 0.369675zM1688.306137 635.841155c-0.369675-1.109025 0.184838-2.218051 1.293863-2.587725l10.350903-3.696751c1.109025-0.369675 2.218051 0.184838 2.587725 1.293863 0.369675 1.109025-0.184838 2.218051-1.293863 2.587725l-10.350902 3.696751c-1.109025 0.369675-2.218051-0.184838-2.587726-1.293863zM1637.475812 630.850542c-0.369675 1.109025 0.184838 2.218051 1.293863 2.587725l10.350903 3.696751c1.109025 0.369675 2.218051-0.184838 2.587725-1.293863 0.369675-1.109025-0.184838-2.218051-1.293863-2.587725l-10.350902-3.696751c-1.109025-0.369675-2.218051 0.184838-2.587726 1.293863zM1670.192058 667.263538c-1.109025 0-2.033213 0.924188-2.033213 2.033213v11.090253c0 1.109025 0.924188 2.033213 2.033213 2.033213 1.109025 0 2.033213-0.924188 2.033213-2.033213v-11.090253c0-1.293863-0.924188-2.033213-2.033213-2.033213zM1661.689531 665.230325c-0.924188-0.73935-2.033213-0.554513-2.772563 0.184837l-7.208665 8.502528c-0.73935 0.924188-0.554513 2.033213 0.184838 2.772563 0.924188 0.73935 2.033213 0.554513 2.772563-0.184838l7.208664-8.502527c0.73935-0.73935 0.554513-2.033213-0.184837-2.772563zM1680.358123 665.230325c-0.924188 0.73935-1.109025 1.848375-0.369675 2.772563l6.654151 8.872202c0.73935 0.924188 1.848375 1.109025 2.772563 0.369675 0.924188-0.73935 1.109025-1.848375 0.369676-2.772563l-6.654152-8.872202c-0.554513-0.924188-1.848375-1.109025-2.772563-0.369675zM1689.230325 658.021661c-0.369675 1.109025 0.184838 2.218051 1.293863 2.587725l10.350902 3.696751c1.109025 0.369675 2.218051-0.184838 2.587726-1.293863 0.369675-1.109025-0.184838-2.218051-1.293863-2.587725l-10.350902-3.696751c-1.109025-0.369675-2.218051 0.184838-2.587726 1.293863zM1638.4 663.012274c-0.369675-1.109025 0.184838-2.218051 1.293863-2.587725l10.350902-3.696751c1.109025-0.369675 2.218051 0.184838 2.587726 1.293863 0.369675 1.109025-0.184838 2.218051-1.293863 2.587725l-10.350902 3.696751c-1.109025 0.369675-2.218051-0.184838-2.587726-1.293863zM1633.409386 648.225271c0 1.109025 0.924188 2.033213 2.033213 2.033213h11.090253c1.109025 0 2.033213-0.924188 2.033213-2.033213 0-1.109025-0.924188-2.033213-2.033213-2.033213h-11.090253c-1.109025 0-2.033213 0.924188-2.033213 2.033213zM1690.154513 648.225271c0 1.109025 0.924188 2.033213 2.033213 2.033213h11.090252c1.109025 0 2.033213-0.924188 2.033213-2.033213 0-1.109025-0.924188-2.033213-2.033213-2.033213h-11.090252c-1.109025 0-2.033213 0.924188-2.033213 2.033213z" fill="#45B2EF" p-id="9601"></path><path d="M1207.174007 172.083755l-19.038267 28.464981-19.038267-28.280144c-2.033213-3.327076-3.142238-7.023827-3.142238-10.905415 0-11.644765 9.981227-21.256318 22.180505-21.256318s22.180505 9.611552 22.180505 21.256318c0 3.696751-1.109025 7.578339-3.142238 10.720578z" fill="#37A1F6" p-id="9602"></path><path d="M1152.831769 224.207942l7.578339 22.365343-23.474368-1.293863c-2.587726-0.184838-5.175451-1.293863-7.393502-2.772563-6.469314-4.805776-7.578339-14.232491-2.402888-21.07148 5.175451-6.654152 14.417329-8.31769 20.886643-3.327076 2.218051 1.4787 3.881588 3.511913 4.805776 6.099639zM1244.141516 228.274368l-36.412996 3.511914 10.350902-35.119134c1.293863-3.881588 3.696751-7.393502 6.83899-9.981227 9.79639-7.948014 24.398556-6.284477 32.716245 3.881588s7.208664 24.953069-2.402888 32.901083c-3.142238 2.772563-7.023827 4.436101-11.090253 4.805776z" fill="#37A1F6" p-id="9603"></path><path d="M1137.67509 293.152347h101.106137v14.232491h-101.106137zM1137.67509 313.669314v29.574007c0 0.554513-0.184838 1.109025-0.184837 1.848376 0 13.308303 22.550181 24.028881 50.46065 24.028881 27.171119 0 49.351625-10.166065 50.460649-22.919856h0.184838v-32.34657h-100.9213z" fill="#FF809F" p-id="9604"></path><path d="M971.875812 368.566065h338.80722v7.948014H971.875812zM471.890253 368.566065h379.47148v7.948014H471.890253z" fill="#40327A" p-id="9605"></path><path d="M404.239711 373.002166h1007.364621v574.844765h-1007.364621z" fill="#A4E2F7" p-id="9606"></path><path d="M1411.604332 947.846931h-1007.364621v-223.653429l1007.364621-155.263538z" fill="#45B2EF" p-id="9607"></path><path d="M826.778339 364.129964h338.807221v7.948014H826.778339zM350.821661 364.129964h379.47148v7.948014H350.821661z" fill="#40327A" p-id="9608"></path><path d="M517.914801 284.834657h252.30325v76.153069H517.914801z" fill="#B7ACF5" p-id="9609"></path><path d="M512.73935 289.085921h252.303249v76.153068H512.73935z" fill="#45B2EF" p-id="9610"></path><path d="M1421.400722 160.254152c-6.284477 3.327076-28.095307 8.872202-54.157401 65.247653s-60.441877 152.86065-48.057761 212.008664c12.384116 59.148014 38.261372 107.205776 59.148014 123.286643 20.886643 16.080866 31.976895 49.351625 9.79639 59.148014-22.180505 9.79639-70.238267 6.099639-73.935018 40.66426s6.099639 82.622383 50.46065 105.911914 123.286643 50.46065 162.657039 13.49314 73.935018-67.835379 40.66426-118.296028c-33.270758-50.46065-29.574007-105.911913 4.990614-156.557401 34.564621-50.46065 24.583394-88.722022-1.293863-104.802888-25.877256-16.080866-91.12491-56.745126-82.622382-134.376896 8.687365-77.262094-28.464982-113.859928-67.650542-105.727075z" fill="#37A1F6" p-id="9611"></path><path d="M1450.050542 469.672202h8.687364v389.637545h-8.687364z" fill="#284A9F" p-id="9612"></path><path d="M1530.454874 871.8787h-152.1213v32.346571h0.184838c2.587726 27.910469 35.488809 49.906137 75.968231 49.906137s73.380505-21.995668 75.968231-49.906137h0.184837v-32.346571zM1378.148736 849.32852h152.1213v17.189892h-152.1213z" fill="#FFC359" p-id="9613"></path><path d="M1378.148736 845.262094h152.1213v5.545126h-152.1213zM1527.867148 525.123466h-0.184838c-42.327798 0-76.707581 26.616606-76.707581 59.332852h7.948015c0-28.464982 31.052708-51.569675 69.129242-51.569675 1.293863 0 2.218051-1.848375 2.21805-3.881589 0-2.218051-1.109025-3.881588-2.402888-3.881588zM1406.244043 651.922022c-1.109025 0-2.033213 1.848375-2.033213 3.881588 0 2.218051 0.924188 3.881588 2.218051 3.881589h0.184837c24.583394 0 44.545848 15.526354 44.545849 34.379783h7.948014c-0.369675-23.289531-24.028881-42.14296-52.863538-42.14296z" fill="#284A9F" p-id="9614"></path><path d="M318.844765 947.477256h317.920578v5.175452h-317.920578zM1148.580505 947.477256h202.397112v4.805776H1148.580505zM784.450542 947.477256h202.397111v4.805776H784.450542z" fill="#40327A" p-id="9615"></path><path d="M199.809386 553.40361c-18.298917 0-33.085921 14.047653-33.08592 31.422383s14.787004 31.422383 33.08592 31.422382 33.085921-14.047653 33.085921-31.422382-14.787004-31.422383-33.085921-31.422383z m0 60.072202c-16.635379 0-30.12852-12.753791-30.12852-28.649819s13.493141-28.649819 30.12852-28.64982 30.12852 12.753791 30.12852 28.64982-13.493141 28.649819-30.12852 28.649819z" fill="#292449" p-id="9616"></path><path d="M107.205776 589.816606h199.254874v136.779784H107.205776z" fill="#683A7B" p-id="9617"></path><path d="M101.106137 585.195668h199.254874v136.779783H101.106137z" fill="#FF809F" p-id="9618"></path><path d="M287.792058 157.481588v55.451264h52.6787V177.628881s24.953069 1.293863 28.464982 0c3.327076-1.293863 9.05704-7.393502 8.872202-15.526354s0-60.072202 0-60.072202l-49.721299-6.099639-40.294585 61.550902z" fill="#FFABBF" p-id="9619"></path><path d="M203.690975 921.969675l0.73935 24.953069 55.636101-0.73935s12.753791-6.284477-4.620939-15.526354-51.754513-8.687365-51.754512-8.687365zM331.228881 921.969675l0.73935 24.953069 55.636101-0.73935s12.753791-6.284477-4.620938-15.526354-51.754513-8.687365-51.754513-8.687365z" fill="#F3689D" p-id="9620"></path><path d="M240.658484 447.861372l-35.119134 474.108303 36.967509 4.620939 49.906137-423.277979 42.512636 0.924188-1.848376 417.732852 37.891697 5.545126 18.483755-480.577617z" fill="#40327A" p-id="9621"></path><path d="M193.340072 526.232491s-8.872202 22.180505-0.369675 37.891697c8.687365 15.711191 23.474368 17.559567 27.725632 12.938628 4.251264-4.620939 5.914801-44.361011-2.218051-52.6787-7.948014-8.31769-25.137906 1.848375-25.137906 1.848375zM557.470036 367.087365c1.848375 1.4787 24.398556 8.31769 41.218773-0.924188 16.820217-9.05704 18.483755-24.028881 13.308303-28.095307s-42.88231-3.696751-57.299639 3.881588c-12.199278 3.881588 0.924188 23.659206 2.772563 25.137907z" fill="#FFABBF" p-id="9622"></path><path d="M238.440433 446.567509l0.924188-87.428159s-13.862816 1.4787-17.559567 13.493141-0.924188 154.33935-0.924188 154.33935l-27.725631 0.554513-26.801444-136.779784s-6.469314-27.355957 3.696751-43.991335 56.929964-122.547292 56.929963-122.547293 3.696751-12.938628 29.574008-14.417328 121.623105 0.554513 121.623104 0.554512 21.256318 9.79639 42.512636 36.043322 59.702527 66.171841 80.404332 73.01083 60.072202 20.886643 60.072202 20.886643l-1.4787 27.355956s-94.267148 1.4787-125.319856-23.659206-39.740072-27.725632-39.740072-27.725631l-2.772563 130.864982-153.415163-0.554513z" fill="#FEC35B" p-id="9623"></path><path d="M276.701805 65.062816s-9.05704 9.981227-7.948014 24.768231-2.772563 48.797112 3.881588 56.375451 6.284477 14.417329 30.12852 12.014441 33.825271 6.099639 38.446209-12.938629 1.4787-25.507581 12.199278-26.986281c10.905415-1.663538 7.578339-16.265704 20.33213-15.711191s36.967509-4.805776 26.062094-21.810831-9.981227-33.085921-37.522022-36.967509-51.754513-13.493141-85.579783 21.256318z" fill="#40327A" p-id="9624"></path></svg>